<svg width="1155" height="134" viewBox="0 0 1155 134" fill="none" xmlns="http://www.w3.org/2000/svg">
<path d="M105.412 40.7702C116.141 37.5129 123.945 27.5263 123.945 15.7091C123.945 9.85641 122.032 4.45059 118.799 0.0932617C108.774 0.780792 100.309 7.13202 96.561 15.9842C95.2318 19.1297 94.4942 22.5846 94.4942 26.2114C94.4942 32.0641 96.4067 37.4699 99.6399 41.8273H99.6485C101.647 41.6983 103.568 41.3288 105.412 40.7702Z" fill="#32D74B"/>
<path d="M89.3657 26.2113C89.3657 31.7719 90.8065 36.9886 93.3364 41.5092C81.0381 39.3864 71.6815 28.6435 71.6815 15.7091C71.6815 14.0847 71.8273 12.4948 72.1189 10.9478C74.5202 10.2173 77.0759 9.82196 79.7174 9.82196C84.2628 9.82196 88.5423 10.9908 92.2644 13.0363C90.4034 17.0412 89.3657 21.5016 89.3657 26.2113Z" fill="#32D74B"/>
<path fill-rule="evenodd" clip-rule="evenodd" d="M44.1862 45.6179H95.4633C119.794 45.6179 139.519 65.3762 139.519 89.7583C139.519 114.14 119.794 133.907 95.4633 133.907H44.1862C19.8555 133.907 0.130249 114.14 0.130249 89.7583C0.130249 65.3762 19.8555 45.6179 44.1862 45.6179ZM55.5068 89.7669C55.5068 111.347 72.968 128.845 94.5028 128.845C116.038 128.845 133.499 111.347 133.499 89.7669C133.499 68.1865 116.038 50.6885 94.5028 50.6885C72.968 50.6885 55.5068 68.1865 55.5068 89.7669Z" fill="#32D74B"/>
<path d="M671.911 98.6809H660.046C659.994 102.116 660.618 105.082 661.919 107.58C663.22 110.077 664.964 112.133 667.149 113.746C669.387 115.359 671.937 116.53 674.799 117.259C677.713 118.039 680.705 118.43 683.776 118.43C687.574 118.43 690.905 117.987 693.767 117.103C696.681 116.218 699.101 114.995 701.026 113.434C703.004 111.821 704.487 109.921 705.476 107.736C706.464 105.55 706.959 103.182 706.959 100.632C706.959 97.5101 706.282 94.9602 704.929 92.9827C703.628 90.9532 702.067 89.34 700.246 88.1431C698.425 86.9463 696.577 86.0876 694.704 85.5672C692.882 84.9948 691.451 84.6045 690.411 84.3964C686.924 83.5117 684.088 82.7832 681.902 82.2107C679.769 81.6383 678.077 81.0659 676.828 80.4935C675.632 79.9211 674.825 79.2966 674.409 78.6201C673.992 77.9436 673.784 77.0589 673.784 75.9661C673.784 74.7692 674.044 73.7805 674.565 72.9999C675.085 72.2193 675.736 71.5688 676.516 71.0485C677.349 70.5281 678.26 70.1638 679.248 69.9557C680.237 69.7475 681.226 69.6434 682.214 69.6434C683.724 69.6434 685.103 69.7735 686.352 70.0337C687.653 70.2939 688.797 70.7362 689.786 71.3607C690.775 71.9852 691.555 72.8438 692.128 73.9366C692.752 75.0294 693.117 76.4084 693.221 78.0737H705.085C705.085 74.8473 704.461 72.1153 703.212 69.8776C702.015 67.5879 700.376 65.7145 698.294 64.2574C696.213 62.8004 693.819 61.7596 691.113 61.1351C688.459 60.4586 685.675 60.1204 682.761 60.1204C680.263 60.1204 677.765 60.4586 675.267 61.1351C672.77 61.8116 670.532 62.8524 668.554 64.2574C666.577 65.6625 664.964 67.4318 663.715 69.5654C662.518 71.6469 661.919 74.1187 661.919 76.9809C661.919 79.5308 662.388 81.7164 663.324 83.5377C664.313 85.307 665.588 86.7901 667.149 87.987C668.71 89.1839 670.48 90.1726 672.457 90.9532C674.435 91.6818 676.464 92.3062 678.546 92.8266C680.575 93.399 682.579 93.9194 684.556 94.3878C686.534 94.8561 688.303 95.4025 689.864 96.027C691.425 96.6514 692.674 97.432 693.611 98.3687C694.6 99.3054 695.094 100.528 695.094 102.037C695.094 103.442 694.73 104.613 694.001 105.55C693.273 106.435 692.362 107.137 691.269 107.658C690.176 108.178 689.005 108.542 687.757 108.75C686.508 108.907 685.337 108.985 684.244 108.985C682.631 108.985 681.07 108.802 679.561 108.438C678.051 108.022 676.724 107.423 675.58 106.643C674.487 105.81 673.602 104.743 672.926 103.442C672.249 102.142 671.911 100.554 671.911 98.6809Z" fill="#32D74B"/>
<path d="M189.51 61.4473V117.181H201.765V93.1389H224.323V117.181H236.578V61.4473H224.323V82.8352H201.765V61.4473H189.51Z" fill="#32D74B"/>
<path d="M259.076 61.4473V117.181H301.383V106.877H271.331V93.2169H298.339V83.6938H271.331V71.751H300.758V61.4473H259.076Z" fill="#32D74B"/>
<path fill-rule="evenodd" clip-rule="evenodd" d="M315.546 117.181L336.621 61.4473H349.188L370.03 117.181H357.307L353.091 104.769H332.25L327.879 117.181H315.546ZM342.71 75.1855L335.45 95.6367H349.891L342.866 75.1855H342.71Z" fill="#32D74B"/>
<path d="M386.545 61.4473V117.181H425.964V106.877H398.8V61.4473H386.545Z" fill="#32D74B"/>
<path d="M449.692 117.181V71.751H432.987V61.4473H478.651V71.751H461.947V117.181H449.692Z" fill="#32D74B"/>
<path d="M496.786 61.4473V117.181H509.041V93.1389H531.6V117.181H543.855V61.4473H531.6V82.8352H509.041V61.4473H496.786Z" fill="#32D74B"/>
<path d="M580.793 117.181V95.4806L560.342 61.4473H574.08L587.116 83.4597L600.073 61.4473H613.733L593.048 95.7928V117.181H580.793Z" fill="#32D74B"/>
<path d="M794.026 61.4473L779.039 117.181H766.862L757.417 79.2445H757.26L747.972 117.181H735.56L720.807 61.4473H733.062L741.883 99.3835H742.039L751.718 61.4473H763.193L772.716 99.8518H772.872L782.005 61.4473H794.026Z" fill="#32D74B"/>
<path d="M811.381 61.4473V117.181H823.636V61.4473H811.381Z" fill="#32D74B"/>
<path d="M858.444 117.181V71.751H841.739V61.4473H887.403V71.751H870.699V117.181H858.444Z" fill="#32D74B"/>
<path d="M942.694 80.1812H954.558C954.194 76.9548 953.309 74.0927 951.904 71.5949C950.499 69.097 948.704 67.0155 946.518 65.3503C944.385 63.633 941.939 62.332 939.181 61.4473C936.475 60.5627 933.587 60.1204 930.517 60.1204C926.249 60.1204 922.398 60.8749 918.964 62.384C915.581 63.8932 912.719 65.9747 910.378 68.6287C908.036 71.2826 906.24 74.4049 904.992 77.9956C903.743 81.5342 903.118 85.3851 903.118 89.5482C903.118 93.6072 903.743 97.406 904.992 100.945C906.24 104.431 908.036 107.475 910.378 110.077C912.719 112.679 915.581 114.735 918.964 116.244C922.398 117.701 926.249 118.43 930.517 118.43C933.951 118.43 937.099 117.909 939.962 116.868C942.824 115.828 945.322 114.319 947.455 112.341C949.589 110.364 951.306 107.97 952.607 105.16C953.908 102.35 954.714 99.2013 955.027 95.7148H943.162C942.694 99.4615 941.393 102.48 939.259 104.769C937.177 107.059 934.263 108.204 930.517 108.204C927.759 108.204 925.417 107.684 923.491 106.643C921.566 105.55 920.005 104.119 918.808 102.35C917.611 100.58 916.726 98.6029 916.154 96.4173C915.634 94.1796 915.373 91.8899 915.373 89.5482C915.373 87.1024 915.634 84.7346 916.154 82.4449C916.726 80.1552 917.611 78.1257 918.808 76.3564C920.005 74.535 921.566 73.104 923.491 72.0632C925.417 70.9704 927.759 70.424 930.517 70.424C932.026 70.424 933.457 70.6842 934.81 71.2046C936.215 71.6729 937.464 72.3494 938.557 73.2341C939.649 74.1187 940.56 75.1595 941.289 76.3564C942.017 77.5013 942.485 78.7762 942.694 80.1812Z" fill="#32D74B"/>
<path d="M975.104 117.181V61.4473H987.359V82.8352H1009.92V61.4473H1022.17V117.181H1009.92V93.1389H987.359V117.181H975.104Z" fill="#32D74B"/>
<path d="M1044.67 61.4473V117.181H1086.98V106.877H1056.93V93.2169H1083.93V83.6938H1056.93V71.751H1086.35V61.4473H1044.67Z" fill="#32D74B"/>
<path fill-rule="evenodd" clip-rule="evenodd" d="M1106.99 117.181V61.4473H1137.05C1139.54 61.4473 1141.78 61.8636 1143.76 62.6963C1145.79 63.4768 1147.51 64.5697 1148.91 65.9747C1150.37 67.3797 1151.46 69.019 1152.19 70.8923C1152.97 72.7137 1153.36 74.6912 1153.36 76.8247C1153.36 80.1032 1152.66 82.9393 1151.25 85.333C1149.9 87.7268 1147.66 89.5482 1144.54 90.7971V90.9532C1146.05 91.3695 1147.3 92.02 1148.29 92.9047C1149.28 93.7373 1150.08 94.752 1150.71 95.9489C1151.33 97.0938 1151.77 98.3687 1152.03 99.7738C1152.35 101.179 1152.55 102.584 1152.66 103.989C1152.67 104.247 1152.69 104.519 1152.7 104.805C1152.71 105.009 1152.73 105.22 1152.74 105.438C1152.76 105.957 1152.79 106.515 1152.81 107.111C1152.87 108.308 1152.94 109.531 1153.05 110.78C1153.2 112.029 1153.41 113.226 1153.67 114.371C1153.99 115.463 1154.43 116.4 1155 117.181H1142.74C1142.07 115.411 1141.65 113.304 1141.5 110.858C1141.34 108.412 1141.11 106.07 1140.79 103.833C1140.38 100.919 1139.49 98.785 1138.14 97.432C1136.79 96.079 1134.57 95.4025 1131.5 95.4025H1119.25V117.181H1106.99ZM1119.25 70.9704V86.66H1132.68C1135.49 86.66 1137.59 86.0356 1139 84.7867C1140.4 83.5377 1141.11 81.5082 1141.11 78.6981C1141.11 75.9921 1140.4 74.0407 1139 72.8438C1137.59 71.5949 1135.49 70.9704 1132.68 70.9704H1119.25Z" fill="#32D74B"/>
</svg>
